<svg xmlns="http://www.w3.org/2000/svg" width="60" height="16" viewBox="0 0 60 16"><g><g><path d="M59.425 13.07v1.423a.93.93 0 0 1-.928.931h-.787c-1.454 0-2.586-.361-3.395-1.084-.81-.723-1.214-1.92-1.214-3.589V6.168h-.742a.93.93 0 0 1-.927-.932V3.88a.93.93 0 0 1 .927-.932h.742V.817a.93.93 0 0 1 .928-.932h1.952a.93.93 0 0 1 .928.932v2.131h1.566a.93.93 0 0 1 .927.932v1.356a.93.93 0 0 1-.927.932h-1.566v4.65c0 .492.1.835.3 1.029.2.194.538.29 1.013.29h.275a.93.93 0 0 1 .928.932zM44.55 2.791c1.573 0 2.831.395 3.774 1.185a4.984 4.984 0 0 1 1.452 2.007.82.82 0 0 1-.758 1.123h-1.836a.928.928 0 0 1-.848-.553 1.525 1.525 0 0 0-.134-.25 1.866 1.866 0 0 0-.37-.393c-.364-.291-.82-.436-1.37-.436-.43 0-.757.093-.98.28-.222.186-.333.45-.333.793 0 .387.204.678.612.872.408.194 1.05.387 1.926.581.95.224 1.73.451 2.338.682a3.858 3.858 0 0 1 1.582 1.13c.445.52.668 1.221.668 2.1 0 .716-.193 1.35-.58 1.901-.385.552-.942.984-1.67 1.297-.727.313-1.588.47-2.583.47-1.677 0-3.02-.373-4.03-1.118a4.477 4.477 0 0 1-1.568-2.106.812.812 0 0 1 .757-1.091h1.937c.381 0 .724.234.863.591.028.07.056.13.085.177.11.18.253.333.43.461.394.283.903.425 1.526.425.43 0 .757-.1.98-.302.223-.201.334-.466.334-.794 0-.432-.204-.741-.612-.927-.409-.187-1.073-.384-1.993-.593-.92-.194-1.678-.402-2.272-.626a3.75 3.75 0 0 1-1.536-1.084c-.43-.5-.646-1.182-.646-2.046 0-1.118.423-2.024 1.27-2.717.845-.693 2.04-1.04 3.585-1.04zM30.878 6.145c-.817 0-1.474.269-1.971.805-.498.537-.746 1.282-.746 2.236 0 .954.248 1.7.746 2.236.497.537 1.154.805 1.97.805.802 0 1.46-.276 1.971-.827.513-.552.769-1.29.769-2.214 0-.939-.256-1.68-.769-2.224-.512-.545-1.169-.817-1.97-.817zm-1.225-3.353c.95 0 1.766.216 2.45.648a3.894 3.894 0 0 1 1.514 1.766V3.88a.93.93 0 0 1 .927-.932h1.93a.93.93 0 0 1 .928.932v10.613a.93.93 0 0 1-.928.931h-1.93a.93.93 0 0 1-.927-.931v-1.327a3.894 3.894 0 0 1-1.515 1.766c-.683.432-1.5.649-2.45.649-1.024 0-1.94-.257-2.75-.772-.808-.514-1.447-1.256-1.914-2.224-.468-.97-.702-2.102-.702-3.399 0-1.312.234-2.448.702-3.41.467-.96 1.106-1.699 1.915-2.213.809-.514 1.725-.771 2.75-.771zM16.513 6.1a2.42 2.42 0 0 0-1.836.793c-.497.53-.746 1.294-.746 2.292 0 .999.249 1.759.746 2.28.497.522 1.11.783 1.837.783.727 0 1.335-.26 1.825-.782s.735-1.282.735-2.28c0-1-.245-1.763-.735-2.293a2.386 2.386 0 0 0-1.825-.793zm.001-3.31c1.233 0 2.335.258 3.307.772a5.643 5.643 0 0 1 2.294 2.225c.557.969.835 2.101.835 3.398 0 1.297-.278 2.43-.835 3.399a5.643 5.643 0 0 1-2.294 2.224c-.972.515-2.075.772-3.307.772-1.232 0-2.338-.257-3.318-.772a5.625 5.625 0 0 1-2.305-2.224c-.556-.97-.835-2.102-.835-3.399 0-1.297.279-2.43.835-3.398a5.625 5.625 0 0 1 2.305-2.225c.98-.514 2.086-.771 3.318-.771zM8.564 13.07v1.424a.93.93 0 0 1-.927.931H6.85c-1.455 0-2.587-.361-3.396-1.084-.81-.723-1.214-1.92-1.214-3.589V6.168h-.742a.93.93 0 0 1-.928-.932V3.88a.93.93 0 0 1 .928-.932h.742V.817a.93.93 0 0 1 .928-.932H5.12a.93.93 0 0 1 .928.932v2.131h1.566a.93.93 0 0 1 .928.932v1.356a.93.93 0 0 1-.928.932H6.048v4.65c0 .492.1.835.3 1.029.201.194.539.29 1.014.29h.275a.93.93 0 0 1 .927.932z"/></g></g></svg>